# xmcd CD database file
#
# Track frame offsets:
#	150
#	13812
#	27822
#	43157
#	55795
#	68199
#	80595
#	92905
#	105916
#	119178
#	131635
#	143582
#	156518
#	170091
#
# Disc length: 2449 seconds
#
# Revision: 0
# Processed by: cddbd v1.5.1PL0 Copyright (c) Steve Scherf et al.
# Submitted via: CDex 1.40Release
#
DISCID=c5098f0e
DTITLE=Various Artist - thats blues
DYEAR=1900
DGENRE=Blues
TTITLE0=sweet home chicago
TTITLE1=blue birds blues
TTITLE2=baby please dont go
TTITLE3=bad luck blues
TTITLE4=nothing in rembling
TTITLE5=pickin' my tomatoes
TTITLE6=blues at midnight
TTITLE7=take a little walk with me
TTITLE8=jailhouse blues
TTITLE9=junkers blues
TTITLE10=bukka's jitterburg swing
TTITLE11=tell me little woman
TTITLE12=katie may
TTITLE13=call it stormy monday
EXTD=ID3G: 0
EXTT0=
EXTT1=
EXTT2=
EXTT3=
EXTT4=
EXTT5=
EXTT6=
EXTT7=
EXTT8=
EXTT9=
EXTT10=
EXTT11=
EXTT12=
EXTT13=
PLAYORDER=
